<svg width="12" height="13" viewBox="0 0 12 13" fill="none" xmlns="http://www.w3.org/2000/svg">
<path d="M11.7157 6.55952C11.7157 9.73139 9.28183 12.303 6.27976 12.303C3.27769 12.303 0.843777 9.73139 0.843777 6.55952C0.843777 3.38764 3.27769 0.816054 6.27976 0.816054C9.28183 0.816054 11.7157 3.38764 11.7157 6.55952Z" fill="black"/>
<path d="M5.04052 6.12324L5.88234 5.71504V5.32785C5.87603 5.28049 5.87034 5.23314 5.86372 5.18611C5.78859 4.66519 5.39436 4.22965 4.90606 4.12826C4.85524 4.11793 4.80442 4.10992 4.7536 4.10058H4.5579C4.50709 4.10992 4.45595 4.11793 4.40545 4.12826C3.91715 4.22965 3.52291 4.66519 3.44779 5.18611C3.44085 5.23314 3.43517 5.28049 3.42917 5.32785V7.47156C3.43517 7.51891 3.44085 7.56627 3.44779 7.61329C3.52291 8.13421 3.91684 8.56976 4.40545 8.67114C4.45595 8.68148 4.50709 8.68948 4.5579 8.69882H4.7536C4.80442 8.68948 4.85524 8.68148 4.90606 8.67114C5.39436 8.56976 5.78859 8.13421 5.86372 7.61329C5.87034 7.56627 5.87603 7.51891 5.88234 7.47156V6.69151L5.04052 6.12324Z" fill="white"/>
<path d="M8.4646 6.12324L9.30642 5.71504V5.32785C9.30011 5.28049 9.29442 5.23314 9.28779 5.18611C9.21267 4.66519 8.81844 4.22965 8.33014 4.12826C8.27932 4.11793 8.2285 4.10992 8.17768 4.10058H7.98198C7.93117 4.10992 7.88003 4.11793 7.82953 4.12826C7.34123 4.22965 6.94699 4.66519 6.87187 5.18611C6.86493 5.23314 6.85925 5.28049 6.85325 5.32785V7.47156C6.85925 7.51891 6.86493 7.56627 6.87187 7.61329C6.94699 8.13421 7.34092 8.56976 7.82953 8.67114C7.88003 8.68148 7.93117 8.68948 7.98198 8.69882H8.17768C8.2285 8.68948 8.27932 8.68148 8.33014 8.67114C8.81844 8.56976 9.21267 8.13421 9.28779 7.61329C9.29442 7.56627 9.30011 7.51891 9.30642 7.47156V6.69151L8.4646 6.12324Z" fill="white"/>
</svg>
